<svg xmlns="http://www.w3.org/2000/svg" xmlns:xlink="http://www.w3.org/1999/xlink" width="250" zoomAndPan="magnify" viewBox="0 0 187.5 187.499992" height="250" preserveAspectRatio="xMidYMid meet" version="1.0"><defs><g/></defs><g fill="#ffffff" fill-opacity="1"><g transform="translate(13.407938, 75.811043)"><g><path d="M 7.121094 0.160156 C 11.109375 0.160156 13.882812 -1.734375 13.882812 -6.441406 C 13.882812 -11.128906 11.148438 -14.121094 7.121094 -14.121094 C 3.113281 -14.121094 0.378906 -11.128906 0.378906 -6.441406 C 0.378906 -1.734375 3.171875 0.160156 7.121094 0.160156 Z M 7.140625 -2.472656 C 5.105469 -2.472656 3.53125 -3.570312 3.53125 -6.601562 C 3.53125 -9.554688 5.027344 -11.488281 7.140625 -11.488281 C 9.234375 -11.488281 10.75 -9.554688 10.75 -6.601562 C 10.75 -3.570312 9.175781 -2.472656 7.140625 -2.472656 Z M 7.140625 -2.472656 "/></g></g></g><g fill="#ffffff" fill-opacity="1"><g transform="translate(27.667603, 75.811043)"><g><path d="M 7.359375 0.140625 C 8.753906 0.140625 11.128906 -0.179688 12.246094 -0.679688 C 12.445312 -0.796875 12.625 -1.039062 12.605469 -1.335938 C 12.566406 -2.414062 12.523438 -3.492188 12.464844 -4.566406 C 12.425781 -5.125 11.847656 -5.226562 11.628906 -4.746094 C 10.851562 -3.191406 9.292969 -2.433594 7.359375 -2.433594 C 5.246094 -2.433594 3.46875 -3.53125 3.46875 -6.582031 C 3.46875 -9.8125 5.125 -11.585938 7.21875 -11.585938 C 9.234375 -11.585938 10.332031 -10.691406 11.050781 -9.394531 C 11.25 -8.976562 11.765625 -9.054688 11.808594 -9.472656 C 11.847656 -9.890625 11.988281 -12.066406 12.007812 -12.425781 C 12.027344 -12.703125 11.945312 -12.945312 11.726562 -13.082031 C 10.589844 -13.640625 8.875 -14.121094 7.261719 -14.121094 C 3.230469 -14.121094 0.398438 -11.167969 0.398438 -6.460938 C 0.398438 -1.796875 3.3125 0.140625 7.359375 0.140625 Z M 7.359375 0.140625 "/></g></g></g><g fill="#ffffff" fill-opacity="1"><g transform="translate(40.730653, 75.811043)"><g><path d="M 6.242188 0.078125 C 6.441406 0.078125 7.160156 0.0585938 7.480469 0.0195312 C 7.777344 -0.0390625 8.019531 -0.238281 8.019531 -0.519531 C 7.917969 -2.554688 7.617188 -8.019531 7.539062 -10.191406 C 7.519531 -11.070312 7.796875 -11.546875 8.4375 -11.546875 C 9.792969 -11.546875 10.789062 -10.910156 11.328125 -9.972656 C 11.585938 -9.535156 12.125 -9.554688 12.125 -10.132812 C 12.105469 -10.828125 12.085938 -12.84375 12.027344 -13.460938 C 11.988281 -13.78125 11.789062 -13.941406 11.507812 -13.960938 C 10.3125 -14.039062 7.617188 -14.039062 6.183594 -14.039062 C 4.566406 -14.039062 2.054688 -14.0625 0.835938 -13.960938 C 0.597656 -13.941406 0.378906 -13.800781 0.339844 -13.460938 C 0.300781 -12.84375 0.257812 -10.851562 0.238281 -10.132812 C 0.238281 -9.554688 0.777344 -9.535156 1.039062 -9.972656 C 1.59375 -10.910156 2.832031 -11.546875 3.988281 -11.546875 C 4.628906 -11.546875 4.90625 -11.089844 4.886719 -10.191406 C 4.804688 -7.957031 4.527344 -2.59375 4.449219 -0.519531 C 4.425781 -0.238281 4.667969 -0.0390625 4.945312 0 C 5.265625 0.0390625 6.023438 0.078125 6.242188 0.078125 Z M 6.242188 0.078125 "/></g></g></g><g fill="#ffffff" fill-opacity="1"><g transform="translate(53.095677, 75.811043)"><g><path d="M 6.402344 0.160156 C 10.292969 0.160156 12.367188 -1.695312 12.367188 -5.285156 C 12.367188 -8.039062 12.226562 -11.429688 12.007812 -13.460938 C 11.964844 -13.742188 11.789062 -13.902344 11.527344 -13.960938 C 11.230469 -14.019531 10.628906 -14.039062 10.371094 -14.039062 C 10.09375 -14.039062 9.453125 -14.019531 9.15625 -13.960938 C 8.914062 -13.921875 8.65625 -13.722656 8.714844 -13.363281 C 9.054688 -11.128906 9.292969 -8.21875 9.234375 -5.703125 C 9.195312 -3.710938 8.257812 -2.351562 6.402344 -2.351562 C 4.566406 -2.351562 3.609375 -3.628906 3.570312 -5.703125 C 3.511719 -8.21875 3.730469 -11.1875 4.089844 -13.363281 C 4.148438 -13.722656 3.871094 -13.921875 3.628906 -13.960938 C 3.371094 -14.019531 2.691406 -14.039062 2.433594 -14.039062 C 2.132812 -14.039062 1.554688 -14.019531 1.277344 -13.960938 C 1.015625 -13.902344 0.835938 -13.742188 0.796875 -13.460938 C 0.617188 -11.429688 0.4375 -8.039062 0.4375 -5.285156 C 0.417969 -1.695312 2.511719 0.160156 6.402344 0.160156 Z M 6.402344 0.160156 "/></g></g></g><g fill="#ffffff" fill-opacity="1"><g transform="translate(65.879515, 75.811043)"><g><path d="M 6.839844 0.160156 C 10.171875 0.160156 13.0625 -0.996094 13.0625 -3.550781 C 13.0625 -5.265625 11.648438 -6.703125 8.835938 -7.300781 C 8.457031 -7.417969 8.457031 -7.71875 8.875 -7.839844 C 11.050781 -8.335938 12.324219 -9.734375 12.324219 -11.1875 C 12.324219 -13.242188 10.171875 -14.121094 6.121094 -14.121094 C 4.804688 -14.121094 2.792969 -14.0625 1.417969 -13.960938 C 1.15625 -13.941406 0.957031 -13.742188 0.9375 -13.441406 C 0.738281 -10.429688 0.558594 -5.085938 0.558594 -0.539062 C 0.558594 -0.257812 0.757812 -0.0390625 1.039062 0 C 1.835938 0.078125 5.066406 0.160156 6.839844 0.160156 Z M 4.628906 -8.574219 C 4.046875 -8.515625 3.730469 -8.695312 3.691406 -9.195312 C 3.648438 -9.8125 3.628906 -10.511719 3.691406 -11.128906 C 3.730469 -11.566406 4.007812 -11.808594 4.527344 -11.828125 C 5.027344 -11.867188 5.945312 -11.886719 6.582031 -11.886719 C 8.496094 -11.886719 9.3125 -11.386719 9.3125 -10.550781 C 9.3125 -9.511719 7.898438 -8.855469 4.628906 -8.574219 Z M 4.726562 -2.332031 C 4.128906 -2.351562 3.710938 -2.632812 3.691406 -3.269531 C 3.628906 -4.070312 3.628906 -4.867188 3.691406 -5.683594 C 3.710938 -6.222656 4.007812 -6.5625 4.667969 -6.441406 C 8.019531 -6.121094 9.914062 -5.503906 9.914062 -4.128906 C 9.914062 -3.011719 8.714844 -2.273438 6.902344 -2.273438 C 6.324219 -2.273438 5.265625 -2.292969 4.726562 -2.332031 Z M 4.726562 -2.332031 "/></g></g></g><g fill="#ffffff" fill-opacity="1"><g transform="translate(79.321489, 75.811043)"><g><path d="M 2.414062 0.078125 C 2.871094 0.078125 3.3125 0.0585938 3.710938 0 C 4.007812 -0.0585938 4.269531 -0.257812 4.207031 -0.558594 C 4.089844 -1.675781 3.769531 -3.289062 3.769531 -4.828125 C 3.769531 -5.464844 4.148438 -5.882812 4.726562 -5.882812 C 6.980469 -5.882812 8.894531 -3.351562 8.933594 -0.539062 C 8.933594 -0.21875 9.175781 -0.0585938 9.472656 0 C 9.890625 0.0585938 10.511719 0.078125 10.828125 0.078125 C 11.089844 0.078125 11.585938 0.0585938 12.007812 0 C 12.304688 -0.0585938 12.523438 -0.21875 12.523438 -0.539062 C 12.523438 -3.828125 11.347656 -5.785156 8.515625 -6.480469 C 8.175781 -6.582031 8.175781 -6.878906 8.535156 -6.941406 C 11.050781 -7.480469 12.367188 -9.113281 12.367188 -10.808594 C 12.367188 -13.101562 10.191406 -14.121094 6.261719 -14.121094 C 4.925781 -14.121094 1.796875 -14.0625 1.417969 -14.019531 C 1.15625 -14 0.9375 -13.800781 0.9375 -13.542969 C 0.859375 -11.050781 0.558594 -3.492188 0.558594 -0.519531 C 0.558594 -0.238281 0.757812 -0.0585938 1.058594 0 C 1.277344 0.0585938 1.835938 0.078125 2.414062 0.078125 Z M 4.746094 -8.039062 C 4.167969 -7.917969 3.769531 -8.078125 3.710938 -8.675781 C 3.628906 -9.355469 3.667969 -10.3125 3.710938 -10.890625 C 3.75 -11.289062 4.007812 -11.566406 4.488281 -11.609375 C 4.984375 -11.648438 5.445312 -11.648438 6.082031 -11.648438 C 8.316406 -11.648438 9.355469 -11.207031 9.355469 -10.191406 C 9.355469 -9.09375 7.699219 -8.316406 4.746094 -8.039062 Z M 4.746094 -8.039062 "/></g></g></g><g fill="#ffffff" fill-opacity="1"><g transform="translate(92.364594, 75.811043)"><g><path d="M 6.28125 0.078125 C 7.839844 0.078125 10.808594 0.078125 12.1875 0 C 12.464844 -0.0195312 12.605469 -0.179688 12.605469 -0.417969 C 12.566406 -1.175781 12.445312 -3.730469 12.34375 -4.488281 C 12.285156 -5.027344 11.726562 -5.066406 11.507812 -4.605469 C 10.628906 -3.011719 9.632812 -2.351562 7 -2.351562 C 5.144531 -2.351562 3.429688 -2.933594 3.429688 -4.566406 L 3.429688 -5.105469 C 3.429688 -6.382812 4.605469 -6.820312 5.945312 -6.820312 C 7.019531 -6.839844 8.355469 -6.679688 9.074219 -6.183594 C 9.414062 -5.882812 9.773438 -5.984375 9.773438 -6.421875 L 9.773438 -8.257812 C 9.773438 -8.535156 9.511719 -8.777344 9.214844 -8.734375 C 8.257812 -8.617188 6.820312 -8.554688 5.785156 -8.554688 C 4.269531 -8.554688 3.449219 -9.054688 3.449219 -9.890625 L 3.449219 -10.070312 C 3.449219 -11.230469 4.785156 -11.6875 6.480469 -11.6875 C 8.816406 -11.6875 10.171875 -11.128906 10.890625 -10.011719 C 11.1875 -9.535156 11.707031 -9.652344 11.6875 -10.191406 C 11.667969 -10.808594 11.585938 -12.824219 11.527344 -13.484375 C 11.488281 -13.800781 11.308594 -13.941406 11.007812 -13.960938 C 9.773438 -14.039062 7.796875 -14.039062 6.28125 -14.039062 C 4.925781 -14.039062 2.152344 -14.019531 1.496094 -13.960938 C 1.214844 -13.941406 0.976562 -13.800781 0.957031 -13.503906 C 0.71875 -10.011719 0.578125 -4.488281 0.558594 -0.5 C 0.558594 -0.199219 0.777344 -0.0195312 1.097656 0 C 1.894531 0.0585938 4.867188 0.078125 6.28125 0.078125 Z M 6.28125 0.078125 "/></g></g></g><g fill="#ffffff" fill-opacity="1"><g transform="translate(105.407699, 75.811043)"><g/></g></g><g fill="#ffffff" fill-opacity="1"><g transform="translate(110.772519, 75.811043)"><g><path d="M 2.414062 0.078125 C 2.871094 0.078125 3.3125 0.0585938 3.710938 0 C 4.007812 -0.0585938 4.269531 -0.257812 4.207031 -0.558594 C 4.089844 -1.675781 3.769531 -3.289062 3.769531 -4.828125 C 3.769531 -5.464844 4.148438 -5.882812 4.726562 -5.882812 C 6.980469 -5.882812 8.894531 -3.351562 8.933594 -0.539062 C 8.933594 -0.21875 9.175781 -0.0585938 9.472656 0 C 9.890625 0.0585938 10.511719 0.078125 10.828125 0.078125 C 11.089844 0.078125 11.585938 0.0585938 12.007812 0 C 12.304688 -0.0585938 12.523438 -0.21875 12.523438 -0.539062 C 12.523438 -3.828125 11.347656 -5.785156 8.515625 -6.480469 C 8.175781 -6.582031 8.175781 -6.878906 8.535156 -6.941406 C 11.050781 -7.480469 12.367188 -9.113281 12.367188 -10.808594 C 12.367188 -13.101562 10.191406 -14.121094 6.261719 -14.121094 C 4.925781 -14.121094 1.796875 -14.0625 1.417969 -14.019531 C 1.15625 -14 0.9375 -13.800781 0.9375 -13.542969 C 0.859375 -11.050781 0.558594 -3.492188 0.558594 -0.519531 C 0.558594 -0.238281 0.757812 -0.0585938 1.058594 0 C 1.277344 0.0585938 1.835938 0.078125 2.414062 0.078125 Z M 4.746094 -8.039062 C 4.167969 -7.917969 3.769531 -8.078125 3.710938 -8.675781 C 3.628906 -9.355469 3.667969 -10.3125 3.710938 -10.890625 C 3.75 -11.289062 4.007812 -11.566406 4.488281 -11.609375 C 4.984375 -11.648438 5.445312 -11.648438 6.082031 -11.648438 C 8.316406 -11.648438 9.355469 -11.207031 9.355469 -10.191406 C 9.355469 -9.09375 7.699219 -8.316406 4.746094 -8.039062 Z M 4.746094 -8.039062 "/></g></g></g><g fill="#ffffff" fill-opacity="1"><g transform="translate(123.815624, 75.811043)"><g><path d="M 7.121094 0.160156 C 11.109375 0.160156 13.882812 -1.734375 13.882812 -6.441406 C 13.882812 -11.128906 11.148438 -14.121094 7.121094 -14.121094 C 3.113281 -14.121094 0.378906 -11.128906 0.378906 -6.441406 C 0.378906 -1.734375 3.171875 0.160156 7.121094 0.160156 Z M 7.140625 -2.472656 C 5.105469 -2.472656 3.53125 -3.570312 3.53125 -6.601562 C 3.53125 -9.554688 5.027344 -11.488281 7.140625 -11.488281 C 9.234375 -11.488281 10.75 -9.554688 10.75 -6.601562 C 10.75 -3.570312 9.175781 -2.472656 7.140625 -2.472656 Z M 7.140625 -2.472656 "/></g></g></g><g fill="#ffffff" fill-opacity="1"><g transform="translate(138.075289, 75.811043)"><g><path d="M 6.679688 0.160156 C 10.390625 0.160156 12.664062 -1.296875 12.664062 -3.75 C 12.664062 -8.21875 3.910156 -7.738281 3.910156 -10.230469 C 3.910156 -11.1875 5.34375 -11.609375 6.820312 -11.609375 C 8.257812 -11.609375 9.734375 -11.070312 10.851562 -10.070312 C 11.148438 -9.714844 11.609375 -9.933594 11.609375 -10.449219 L 11.609375 -12.683594 C 11.609375 -12.925781 11.46875 -13.144531 11.25 -13.261719 C 9.972656 -13.820312 8.195312 -14.121094 6.679688 -14.121094 C 3.371094 -14.121094 0.796875 -12.925781 0.796875 -10.429688 C 0.796875 -5.824219 9.472656 -6.640625 9.472656 -3.910156 C 9.472656 -2.890625 8.335938 -2.375 6.582031 -2.375 C 4.527344 -2.375 2.574219 -2.972656 1.238281 -4.40625 C 0.9375 -4.765625 0.457031 -4.628906 0.457031 -4.070312 C 0.4375 -3.191406 0.417969 -2.332031 0.417969 -1.457031 C 0.417969 -1.15625 0.539062 -0.9375 0.757812 -0.859375 C 2.375 -0.277344 4.945312 0.160156 6.679688 0.160156 Z M 6.679688 0.160156 "/></g></g></g><g fill="#ffffff" fill-opacity="1"><g transform="translate(151.138336, 75.811043)"><g><path d="M 1.894531 0.078125 C 2.351562 0.078125 3.03125 0.0585938 3.371094 0 C 3.570312 -0.0390625 3.769531 -0.160156 3.769531 -0.398438 C 3.730469 -1.214844 3.871094 -2.054688 4.070312 -2.691406 C 4.386719 -3.171875 4.964844 -3.511719 5.945312 -3.550781 C 6.5625 -3.570312 7.398438 -3.570312 8.019531 -3.550781 C 8.976562 -3.53125 9.613281 -3.191406 9.914062 -2.691406 C 10.113281 -1.996094 10.230469 -1.195312 10.210938 -0.398438 C 10.210938 -0.160156 10.390625 -0.0390625 10.570312 0 C 10.949219 0.0585938 11.707031 0.078125 11.925781 0.078125 C 12.105469 0.078125 12.945312 0.0585938 13.222656 0.0195312 C 13.582031 -0.0195312 13.742188 -0.238281 13.601562 -0.558594 C 12.304688 -5.304688 10.371094 -10.371094 8.714844 -13.621094 C 8.617188 -13.800781 8.4375 -13.921875 8.21875 -13.960938 C 7.777344 -14.039062 7.300781 -14.039062 6.980469 -14.039062 C 6.660156 -14.039062 6.164062 -14.039062 5.765625 -13.960938 C 5.523438 -13.921875 5.363281 -13.800781 5.265625 -13.621094 C 3.609375 -10.371094 1.65625 -5.324219 0.359375 -0.578125 C 0.21875 -0.257812 0.398438 -0.0585938 0.757812 0 C 1.039062 0.0585938 1.515625 0.078125 1.894531 0.078125 Z M 6.542969 -5.105469 C 5.585938 -5.144531 5.1875 -5.542969 5.445312 -6.242188 C 5.683594 -7.4375 6.042969 -8.597656 6.480469 -9.890625 C 6.800781 -10.648438 7.140625 -10.648438 7.460938 -9.890625 C 7.898438 -8.597656 8.296875 -7.417969 8.535156 -6.242188 C 8.777344 -5.566406 8.375 -5.144531 7.417969 -5.105469 C 7.199219 -5.085938 6.761719 -5.085938 6.542969 -5.105469 Z M 6.542969 -5.105469 "/></g></g></g></svg>