<svg xmlns="http://www.w3.org/2000/svg" xmlns:xlink="http://www.w3.org/1999/xlink" width="250" zoomAndPan="magnify" viewBox="0 0 187.5 187.499992" height="250" preserveAspectRatio="xMidYMid meet" version="1.0"><path stroke-linecap="butt" transform="matrix(0.173611, 0, 0, 0.173611, 9.759393, 54.630457)" fill="none" stroke-linejoin="miter" d="M 62.023408 122.931083 C 84.995911 122.931083 100.970913 112.018582 100.970913 84.883578 C 100.970913 57.883574 85.243411 40.671071 62.023408 40.671071 C 38.938405 40.671071 23.210902 57.883574 23.210902 84.883578 C 23.210902 112.018582 39.275905 122.931083 62.023408 122.931083 Z M 62.135908 107.743581 C 50.435906 107.743581 41.345905 101.44358 41.345905 83.961078 C 41.345905 66.973575 49.963406 55.836074 62.135908 55.836074 C 74.19591 55.836074 82.948411 66.973575 82.948411 83.961078 C 82.948411 101.44358 73.858409 107.743581 62.135908 107.743581 Z M 145.52092 122.818583 C 153.575921 122.818583 167.255923 120.951083 173.690924 118.093582 C 174.838424 117.396082 175.873424 116.023582 175.760924 114.313582 C 175.513424 108.081081 175.288424 101.89358 174.950924 95.683579 C 174.725924 92.466079 171.395923 91.903579 170.135923 94.648579 C 165.635923 103.62608 156.703421 107.968581 145.52092 107.968581 C 133.348418 107.968581 123.155916 101.66858 123.155916 84.073578 C 123.155916 65.488575 132.673418 55.251073 144.75592 55.251073 C 156.320921 55.251073 162.665922 60.426074 166.783423 67.896075 C 167.930923 70.303576 170.945923 69.831076 171.170923 67.423575 C 171.395923 65.016075 172.205923 52.506073 172.318423 50.413573 C 172.430923 48.816073 171.958423 47.443572 170.698423 46.633572 C 164.150922 43.416072 154.273421 40.671071 144.95842 40.671071 C 121.783416 40.671071 105.448414 57.658574 105.448414 84.771078 C 105.448414 111.658581 122.233416 122.818583 145.52092 122.818583 Z M 214.348429 122.458583 C 215.49593 122.458583 219.61343 122.346083 221.48093 122.121083 C 223.190931 121.783583 224.585931 120.636083 224.585931 119.016083 C 224.000931 107.293581 222.290931 75.816076 221.818431 63.306075 C 221.705931 58.243574 223.325931 55.476073 226.993431 55.476073 C 234.800932 55.476073 240.538433 59.143574 243.665934 64.566075 C 245.150934 67.086075 248.233434 66.973575 248.233434 63.643575 C 248.120934 59.616074 248.008434 48.006072 247.670934 44.451072 C 247.445934 42.628572 246.298434 41.706072 244.678434 41.593572 C 237.793433 41.121071 222.290931 41.121071 214.010929 41.121071 C 204.695928 41.121071 190.228426 41.008571 183.208425 41.593572 C 181.835925 41.706072 180.575925 42.516072 180.350925 44.451072 C 180.103425 48.006072 179.878425 59.503574 179.765925 63.643575 C 179.765925 66.973575 182.870925 67.086075 184.378425 64.566075 C 187.595926 59.143574 194.728427 55.476073 201.365928 55.476073 C 205.033428 55.476073 206.675928 58.131074 206.563428 63.306075 C 206.068428 76.176076 204.470928 107.068581 203.998428 119.016083 C 203.885928 120.636083 205.258428 121.783583 206.900928 122.008583 C 208.723429 122.233583 213.088429 122.458583 214.348429 122.458583 Z M 286.50594 122.931083 C 308.915943 122.931083 320.863445 112.243582 320.863445 91.566079 C 320.863445 75.703576 320.053444 56.173574 318.770944 44.451072 C 318.545944 42.853572 317.510944 41.931072 316.003444 41.593572 C 314.293444 41.256071 310.850943 41.121071 309.365943 41.121071 C 307.768443 41.121071 304.078442 41.256071 302.345942 41.593572 C 300.973442 41.818572 299.488442 42.966072 299.825942 45.036072 C 301.783442 57.883574 303.155942 74.646076 302.795942 89.158578 C 302.570942 100.63358 297.193441 108.463581 286.50594 108.463581 C 275.930938 108.463581 270.395937 101.10608 270.170937 89.158578 C 269.833437 74.646076 271.093438 57.546074 273.185938 45.036072 C 273.523438 42.966072 271.903438 41.818572 270.508437 41.593572 C 269.023437 41.256071 265.130937 41.121071 263.645936 41.121071 C 261.890936 41.121071 258.560936 41.256071 256.963436 41.593572 C 255.478435 41.931072 254.443435 42.853572 254.218435 44.451072 C 253.183435 56.173574 252.148435 75.703576 252.148435 91.566079 C 252.035935 112.243582 264.095937 122.931083 286.50594 122.931083 Z M 362.668451 122.931083 C 381.838453 122.931083 398.510956 116.248582 398.510956 101.55608 C 398.510956 91.678579 390.343454 83.398577 374.165952 79.956077 C 371.960952 79.258577 371.960952 77.548577 374.390952 76.851077 C 386.900954 73.993576 394.235955 65.938575 394.235955 57.546074 C 394.235955 45.711072 381.838453 40.671071 358.50595 40.671071 C 350.923449 40.671071 339.313447 41.008571 331.415946 41.593572 C 329.930946 41.706072 328.783446 42.853572 328.670946 44.563572 C 327.523446 61.933574 326.488445 92.713579 326.488445 118.881083 C 326.488445 120.523583 327.635946 121.783583 329.233446 122.008583 C 333.823446 122.458583 352.430949 122.931083 362.668451 122.931083 Z M 349.888449 72.598576 C 346.558448 72.936076 344.735948 71.901076 344.510948 69.043575 C 344.285948 65.488575 344.150948 61.438574 344.510948 57.883574 C 344.735948 55.363573 346.333448 53.991073 349.325949 53.878573 C 352.205949 53.653573 357.49345 53.541073 361.16095 53.541073 C 372.185952 53.541073 376.910953 56.398574 376.910953 61.213574 C 376.910953 67.198575 368.743451 70.978576 349.888449 72.598576 Z M 350.495949 108.576081 C 347.030948 108.463581 344.623448 106.821081 344.510948 103.15358 C 344.150948 98.56358 344.150948 93.973579 344.510948 89.271078 C 344.623448 86.166078 346.333448 84.186078 350.113449 84.883578 C 369.440952 86.751078 380.353453 90.306078 380.353453 98.22608 C 380.353453 104.66108 373.445952 108.891081 362.983451 108.891081 C 359.65345 108.891081 353.578449 108.801081 350.495949 108.576081 Z M 414.598458 122.458583 C 417.230958 122.458583 419.750959 122.346083 422.045959 122.008583 C 423.755959 121.671083 425.285959 120.523583 424.903459 118.768582 C 424.228459 112.356082 422.383459 103.04108 422.383459 94.198579 C 422.383459 90.531078 424.565959 88.123578 427.91846 88.123578 C 440.900962 88.123578 451.925963 102.70358 452.150963 118.881083 C 452.150963 120.748583 453.523463 121.671083 455.255964 122.008583 C 457.663464 122.346083 461.240965 122.458583 463.063465 122.458583 C 464.548465 122.458583 467.428465 122.346083 469.835966 122.008583 C 471.545966 121.671083 472.805966 120.748583 472.805966 118.881083 C 472.805966 99.95858 466.055965 88.686078 449.720963 84.658578 C 447.763463 84.073578 447.763463 82.363577 449.833463 82.026077 C 464.323465 78.921077 471.905966 69.493575 471.905966 59.728574 C 471.905966 46.521072 459.373464 40.671071 436.738461 40.671071 C 429.06596 40.671071 411.020957 41.008571 408.838457 41.256071 C 407.353457 41.368571 406.093457 42.516072 406.093457 44.001072 C 405.620957 58.356074 403.910956 101.89358 403.910956 119.016083 C 403.910956 120.636083 405.058457 121.671083 406.768457 122.008583 C 408.028457 122.346083 411.245957 122.458583 414.598458 122.458583 Z M 428.03096 75.703576 C 424.678459 76.401076 422.383459 75.478576 422.045959 72.013576 C 421.573459 68.121075 421.820959 62.586075 422.045959 59.278574 C 422.270959 56.983574 423.755959 55.363573 426.54596 55.138573 C 429.40346 54.913573 432.03596 54.913573 435.703461 54.913573 C 448.573463 54.913573 454.558464 57.433574 454.558464 63.306075 C 454.558464 69.606075 445.018462 74.106076 428.03096 75.703576 Z M 511.978472 122.458583 C 520.955973 122.458583 538.078475 122.458583 545.998477 122.008583 C 547.595977 121.896083 548.428477 120.951083 548.428477 119.578583 C 548.158477 115.213582 547.483477 100.52108 546.898477 96.133579 C 546.560977 93.051079 543.343476 92.826079 542.083476 95.458579 C 537.043475 104.66108 531.283475 108.463581 516.140972 108.463581 C 505.453471 108.463581 495.575969 105.111081 495.575969 95.683579 L 495.575969 92.578579 C 495.575969 85.221078 502.34847 82.701077 510.043472 82.701077 C 516.253472 82.588577 523.925973 83.511077 528.088474 86.391078 C 530.023474 88.123578 532.093475 87.538578 532.093475 84.996078 L 532.093475 74.443576 C 532.093475 72.823576 530.608474 71.451076 528.875974 71.676076 C 523.363473 72.396076 515.105972 72.711076 509.120971 72.711076 C 500.41347 72.711076 495.688469 69.831076 495.688469 65.016075 L 495.688469 64.003575 C 495.688469 57.321074 503.383471 54.688573 513.125972 54.688573 C 526.580974 54.688573 534.388475 57.883574 538.528476 64.341075 C 540.260976 67.086075 543.230976 66.411075 543.118476 63.306075 C 543.005976 59.728574 542.555976 48.118572 542.195976 44.338572 C 541.970976 42.516072 540.935976 41.706072 539.225976 41.593572 C 532.093475 41.121071 520.730973 41.121071 511.978472 41.121071 C 504.193471 41.121071 488.195968 41.256071 484.415968 41.593572 C 482.818468 41.706072 481.445967 42.516072 481.333467 44.226072 C 479.938467 64.341075 479.150967 96.133579 479.038467 119.128583 C 479.038467 120.861083 480.298467 121.896083 482.120968 122.008583 C 486.710968 122.346083 503.833471 122.458583 511.978472 122.458583 Z M 595.745984 122.458583 C 598.378484 122.458583 600.898484 122.346083 603.215985 122.008583 C 604.925985 121.671083 606.433485 120.523583 606.073485 118.768582 C 605.398485 112.356082 603.553485 103.04108 603.553485 94.198579 C 603.553485 90.531078 605.735985 88.123578 609.065986 88.123578 C 622.048487 88.123578 633.073489 102.70358 633.298489 118.881083 C 633.298489 120.748583 634.670989 121.671083 636.425989 122.008583 C 638.83349 122.346083 642.38849 122.458583 644.210991 122.458583 C 645.695991 122.458583 648.598491 122.346083 651.005992 122.008583 C 652.715992 121.671083 653.975992 120.748583 653.975992 118.881083 C 653.975992 99.95858 647.203491 88.686078 630.890989 84.658578 C 628.933488 84.073578 628.933488 82.363577 631.003489 82.026077 C 645.470991 78.921077 653.075992 69.493575 653.075992 59.728574 C 653.075992 46.521072 640.54349 40.671071 617.908487 40.671071 C 610.213486 40.671071 592.190983 41.008571 590.008483 41.256071 C 588.500983 41.368571 587.240982 42.516072 587.240982 44.001072 C 586.768482 58.356074 585.058482 101.89358 585.058482 119.016083 C 585.058482 120.636083 586.205982 121.671083 587.915983 122.008583 C 589.175983 122.346083 592.415983 122.458583 595.745984 122.458583 Z M 609.178486 75.703576 C 605.848485 76.401076 603.553485 75.478576 603.215985 72.013576 C 602.720985 68.121075 602.990985 62.586075 603.215985 59.278574 C 603.440985 56.983574 604.925985 55.363573 607.693485 55.138573 C 610.550986 54.913573 613.183486 54.913573 616.873487 54.913573 C 629.743489 54.913573 635.705989 57.433574 635.705989 63.306075 C 635.705989 69.606075 626.188488 74.106076 609.178486 75.703576 Z M 697.963498 122.931083 C 720.936001 122.931083 736.933504 112.018582 736.933504 84.883578 C 736.933504 57.883574 721.183502 40.671071 697.963498 40.671071 C 674.878495 40.671071 659.150993 57.883574 659.150993 84.883578 C 659.150993 112.018582 675.215995 122.931083 697.963498 122.931083 Z M 698.075998 107.743581 C 686.375997 107.743581 677.308495 101.44358 677.308495 83.961078 C 677.308495 66.973575 685.903497 55.836074 698.075998 55.836074 C 710.136 55.836074 718.888501 66.973575 718.888501 83.961078 C 718.888501 101.44358 709.7985 107.743581 698.075998 107.743581 Z M 777.59101 122.931083 C 798.943513 122.931083 812.038514 114.538582 812.038514 100.40858 C 812.038514 74.646076 761.616007 77.436077 761.616007 63.081075 C 761.616007 57.546074 769.896008 55.138573 778.40101 55.138573 C 786.658511 55.138573 795.163512 58.243574 801.598513 64.003575 C 803.331013 66.051075 805.963514 64.791075 805.963514 61.821074 L 805.963514 48.928573 C 805.963514 47.556072 805.153513 46.296072 803.893513 45.598572 C 796.536012 42.381072 786.298511 40.671071 777.59101 40.671071 C 758.511007 40.671071 743.706005 47.556072 743.706005 61.933574 C 743.706005 88.461078 793.678512 83.736078 793.678512 99.48608 C 793.678512 105.336081 787.108511 108.351081 777.028509 108.351081 C 765.193508 108.351081 753.898506 104.886081 746.226005 96.628579 C 744.516005 94.536079 741.726004 95.346079 741.726004 98.56358 C 741.613504 103.62608 741.501004 108.576081 741.501004 113.616082 C 741.501004 115.326082 742.221005 116.586082 743.481005 117.058582 C 752.751006 120.411083 767.601008 122.931083 777.59101 122.931083 Z M 825.246016 122.458583 C 827.878517 122.458583 831.816017 122.346083 833.751018 122.008583 C 834.898518 121.783583 836.046018 121.063583 836.046018 119.691083 C 835.821018 114.988582 836.631018 110.173581 837.801018 106.483581 C 839.623518 103.73858 842.953519 101.78108 848.57852 101.55608 C 852.15602 101.44358 856.971021 101.44358 860.526021 101.55608 C 866.038522 101.66858 869.706023 103.62608 871.438523 106.483581 C 872.586023 110.511081 873.261023 115.101082 873.148523 119.691083 C 873.148523 121.063583 874.206023 121.783583 875.241023 122.008583 C 877.423524 122.346083 881.766024 122.458583 883.026025 122.458583 C 884.061025 122.458583 888.898525 122.346083 890.518526 122.121083 C 892.566026 121.896083 893.488526 120.636083 892.678526 118.768582 C 885.208525 91.431079 874.093523 62.271074 864.553522 43.528572 C 863.968522 42.516072 862.956022 41.818572 861.696022 41.593572 C 859.131021 41.121071 856.386021 41.121071 854.563521 41.121071 C 852.71852 41.121071 849.86102 41.121071 847.54352 41.593572 C 846.171019 41.818572 845.248519 42.516072 844.663519 43.528572 C 835.123518 62.271074 823.873516 91.318579 816.426015 118.656082 C 815.616015 120.523583 816.651015 121.671083 818.721015 122.008583 C 820.318516 122.346083 823.063516 122.458583 825.246016 122.458583 Z M 851.99852 92.578579 C 846.508519 92.353579 844.213519 90.058578 845.698519 86.053578 C 847.071019 79.146077 849.14102 72.486076 851.68352 65.016075 C 853.52852 60.651074 855.463521 60.651074 857.308521 65.016075 C 859.828521 72.486076 862.123522 79.258577 863.518522 86.053578 C 864.891022 89.946078 862.573522 92.353579 857.083521 92.578579 C 855.823521 92.713579 853.30352 92.713579 851.99852 92.578579 Z M 851.99852 92.578579 " stroke="#ffffff" stroke-width="4.308187" stroke-opacity="1" stroke-miterlimit="4"/></svg>